<?xml version="1.0" encoding="iso-8859-1"?>
<!-- Generator: Adobe Illustrator 19.0.0, SVG Export Plug-In . SVG Version: 6.00 Build 0)  -->
<svg version="1.1" id="Capa_1" xmlns="http://www.w3.org/2000/svg" xmlns:xlink="http://www.w3.org/1999/xlink" x="0px" y="0px"
	 viewBox="0 0 512 512" style="enable-background:new 0 0 512 512;" xml:space="preserve">
<g>
	<g>
		<path d="M394.667,64H352c-5.888,0-10.667,4.779-10.667,10.667S346.112,85.333,352,85.333h42.667c5.867,0,10.667,4.8,10.667,10.667
			v384c0,5.867-4.8,10.667-10.667,10.667H117.333c-5.867,0-10.667-4.8-10.667-10.667V96c0-5.867,4.8-10.667,10.667-10.667H160
			c5.888,0,10.667-4.779,10.667-10.667S165.888,64,160,64h-42.667c-17.643,0-32,14.357-32,32v384c0,17.643,14.357,32,32,32h277.333
			c17.643,0,32-14.357,32-32V96C426.667,78.357,412.309,64,394.667,64z"/>
	</g>
</g>
<g>
	<g>
		<path d="M330.667,42.667h-32C298.667,19.136,279.531,0,256,0s-42.667,19.136-42.667,42.667h-32c-17.643,0-32,14.357-32,32V96
			c0,5.888,4.779,10.667,10.667,10.667h192c5.888,0,10.667-4.779,10.667-10.667V74.667
			C362.667,57.024,348.309,42.667,330.667,42.667z M341.333,85.333H170.667V74.667c0-5.867,4.8-10.667,10.667-10.667H224
			c5.888,0,10.667-4.779,10.667-10.667V42.667c0-11.776,9.557-21.333,21.333-21.333s21.333,9.557,21.333,21.333v10.667
			C277.333,59.221,282.112,64,288,64h42.667c5.867,0,10.667,4.8,10.667,10.667V85.333z"/>
	</g>
</g>
<g>
	<g>
		<circle cx="160" cy="266.667" r="10.667"/>
	</g>
</g>
<g>
	<g>
		<circle cx="160" cy="330.667" r="10.667"/>
	</g>
</g>
<g>
	<g>
		<circle cx="160" cy="394.667" r="10.667"/>
	</g>
</g>
<g>
	<g>
		<path d="M352,256H202.667c-5.888,0-10.667,4.779-10.667,10.667s4.779,10.667,10.667,10.667H352
			c5.888,0,10.667-4.779,10.667-10.667S357.888,256,352,256z"/>
	</g>
</g>
<g>
	<g>
		<circle cx="160" cy="202.667" r="10.667"/>
	</g>
</g>
<g>
	<g>
		<path d="M352,192H202.667c-5.888,0-10.667,4.779-10.667,10.667s4.779,10.667,10.667,10.667H352
			c5.888,0,10.667-4.779,10.667-10.667S357.888,192,352,192z"/>
	</g>
</g>
<g>
	<g>
		<path d="M352,320H202.667c-5.888,0-10.667,4.779-10.667,10.667s4.779,10.667,10.667,10.667H352
			c5.888,0,10.667-4.779,10.667-10.667S357.888,320,352,320z"/>
	</g>
</g>
<g>
	<g>
		<path d="M352,384H202.667c-5.888,0-10.667,4.779-10.667,10.667s4.779,10.667,10.667,10.667H352
			c5.888,0,10.667-4.779,10.667-10.667S357.888,384,352,384z"/>
	</g>
</g>
<g>
</g>
<g>
</g>
<g>
</g>
<g>
</g>
<g>
</g>
<g>
</g>
<g>
</g>
<g>
</g>
<g>
</g>
<g>
</g>
<g>
</g>
<g>
</g>
<g>
</g>
<g>
</g>
<g>
</g>
</svg>
